<svg xmlns="http://www.w3.org/2000/svg" viewBox="0 0 880 460" font-family="Menlo, Consolas, monospace">
<style>
.scr { opacity: 0; }
@keyframes k-boot   { 0%,10% {opacity:1} 12%,100% {opacity:0} }
@keyframes k-go     { 0%,11% {opacity:0} 13%,32% {opacity:1} 34%,46% {opacity:0} 48%,60% {opacity:1} 62%,86% {opacity:0} 88%,100% {opacity:1} }
@keyframes k-gosent { 0%,33% {opacity:0} 35%,46% {opacity:1} 48%,100% {opacity:0} }
@keyframes k-panic  { 0%,61% {opacity:0} 63%,86% {opacity:1} 88%,100% {opacity:0} }
.scr-boot   { animation: k-boot   12s step-end infinite; }
.scr-go     { animation: k-go     12s step-end infinite; }
.scr-gosent { animation: k-gosent 12s step-end infinite; }
.scr-panic  { animation: k-panic  12s step-end infinite; }

@keyframes k-btn { 0%,32% {transform:translateY(0)} 33%,34.5% {transform:translateY(3px)} 35%,59% {transform:translateY(0)} 60%,62.5% {transform:translateY(3px)} 63%,100% {transform:translateY(0)} }
.btn { animation: k-btn 12s linear infinite; }

@keyframes k-led { 0%,33% {opacity:0} 34%,37% {opacity:1} 38%,61% {opacity:0} 62%,72% {opacity:1} 73%,100% {opacity:0} }
.led { animation: k-led 12s linear infinite; }

@keyframes k-wave { 0%,33% {opacity:0; transform:scale(.4)} 35% {opacity:.9} 44% {opacity:0; transform:scale(1.5)} 45%,61% {opacity:0; transform:scale(.4)} 63% {opacity:.9} 72% {opacity:0; transform:scale(1.5)} 73%,100% {opacity:0; transform:scale(.4)} }
.wave { animation: k-wave 12s ease-out infinite; transform-origin: 468px 118px; transform-box: view-box; }
.wave2 { animation-delay: .35s; }

@keyframes k-cue1 { 0%,34% {opacity:1} 36%,98% {opacity:0} 100% {opacity:1} }
@keyframes k-cue2 { 0%,34% {opacity:0} 36%,62% {opacity:1} 64%,100% {opacity:0} }
.cue1sel { animation: k-cue1 12s step-end infinite; }
.cue2sel { animation: k-cue2 12s step-end infinite; }
@keyframes k-goflash { 0%,33% {opacity:0} 34%,40% {opacity:1} 44%,100% {opacity:0} }
.goflash { animation: k-goflash 12s linear infinite; }
@keyframes k-stop { 0%,61% {opacity:0} 63%,84% {opacity:1} 87%,100% {opacity:0} }
.stop { animation: k-stop 12s step-end infinite; }
@keyframes k-bar { 0%,34% {width:52px} 35% {width:0} 36% {width:0} 62% {width:52px} 63%,99% {width:0} 100% {width:52px} }
.bar { animation: k-bar 12s linear infinite; }
</style>

<!-- card -->
<rect width="880" height="460" rx="18" fill="#101826"/>
<text x="440" y="42" text-anchor="middle" fill="#e8eef7" font-size="22" font-weight="bold">GO-GO &#183; one-button show control</text>
<text x="440" y="440" text-anchor="middle" fill="#5d6c80" font-size="14">1 click = GO &#160;&#160;&#183;&#160;&#160; hold 1.4s = PANIC &#160;&#160;&#183;&#160;&#160; LoRa / WiFi&#8209;OSC / BLE</text>

<!-- ===== device (Heltec WiFi LoRa 32 V3) ===== -->
<g transform="translate(60,80)">
  <!-- antenna -->
  <rect x="384" y="30" width="46" height="8" rx="4" fill="#2c3a4f"/>
  <rect x="424" y="14" width="10" height="40" rx="5" fill="#37475f"/>
  <!-- pcb -->
  <rect x="0" y="0" width="392" height="230" rx="14" fill="#16202f" stroke="#2b3950" stroke-width="2"/>
  <rect x="8" y="8" width="376" height="214" rx="10" fill="none" stroke="#1d2a3d" stroke-width="1"/>
  <!-- usb-c -->
  <rect x="-8" y="96" width="16" height="38" rx="6" fill="#3b4a61"/>
  <!-- oled module -->
  <rect x="52" y="34" width="288" height="162" rx="6" fill="#0c1320"/>
  <rect x="64" y="46" width="264" height="138" rx="3" fill="#05080e"/>
  <!-- screen pixels: 128x64 grid scaled x2 at (68,50) -->
  <g transform="translate(68,51) scale(2.03,2.06)">
    <g class="scr scr-boot"><path d="M0 0h128v1h-128zM0 1h128v1h-128zM0 2h128v1h-128zM0 3h128v1h-128zM0 4h128v1h-128zM0 5h128v1h-128zM0 6h128v1h-128zM0 7h128v1h-128zM0 8h128v1h-128zM0 9h128v1h-128zM0 10h128v1h-128zM0 11h128v1h-128zM0 12h128v1h-128zM0 13h128v1h-128zM0 14h128v1h-128zM0 15h128v1h-128zM0 16h128v1h-128zM0 17h128v1h-128zM0 18h128v1h-128zM0 19h128v1h-128zM0 20h128v1h-128zM0 21h128v1h-128zM0 22h128v1h-128zM0 23h128v1h-128zM0 24h66v1h-66zM68 24h2v1h-2zM72 24h34v1h-34zM108 24h20v1h-20zM0 25h66v1h-66zM68 25h2v1h-2zM72 25h34v1h-34zM108 25h20v1h-20zM0 26h66v1h-66zM68 26h2v1h-2zM72 26h34v1h-34zM108 26h20v1h-20zM0 27h66v1h-66zM68 27h2v1h-2zM72 27h34v1h-34zM108 27h20v1h-20zM0 28h12v1h-12zM20 28h4v1h-4zM30 28h4v1h-4zM36 28h6v1h-6zM44 28h2v1h-2zM48 28h2v1h-2zM54 28h6v1h-6zM64 28h2v1h-2zM68 28h2v1h-2zM72 28h4v1h-4zM78 28h6v1h-6zM90 28h4v1h-4zM96 28h2v1h-2zM102 28h4v1h-4zM108 28h2v1h-2zM114 28h14v1h-14zM0 29h12v1h-12zM20 29h4v1h-4zM30 29h4v1h-4zM36 29h6v1h-6zM44 29h2v1h-2zM48 29h2v1h-2zM54 29h6v1h-6zM64 29h2v1h-2zM68 29h2v1h-2zM72 29h4v1h-4zM78 29h6v1h-6zM90 29h4v1h-4zM96 29h2v1h-2zM102 29h4v1h-4zM108 29h2v1h-2zM114 29h14v1h-14zM0 30h10v1h-10zM12 30h10v1h-10zM24 30h6v1h-6zM32 30h2v1h-2zM36 30h6v1h-6zM44 30h2v1h-2zM50 30h4v1h-4zM56 30h2v1h-2zM60 30h4v1h-4zM68 30h2v1h-2zM72 30h2v1h-2zM76 30h6v1h-6zM84 30h6v1h-6zM92 30h2v1h-2zM98 30h4v1h-4zM104 30h2v1h-2zM110 30h4v1h-4zM116 30h12v1h-12zM0 31h10v1h-10zM12 31h10v1h-10zM24 31h6v1h-6zM32 31h2v1h-2zM36 31h6v1h-6zM44 31h2v1h-2zM50 31h4v1h-4zM56 31h2v1h-2zM60 31h4v1h-4zM68 31h2v1h-2zM72 31h2v1h-2zM76 31h6v1h-6zM84 31h6v1h-6zM92 31h2v1h-2zM98 31h4v1h-4zM104 31h2v1h-2zM110 31h4v1h-4zM116 31h12v1h-12zM0 32h12v1h-12zM18 32h4v1h-4zM24 32h6v1h-6zM32 32h2v1h-2zM36 32h6v1h-6zM44 32h2v1h-2zM48 32h6v1h-6zM56 32h2v1h-2zM60 32h6v1h-6zM68 32h2v1h-2zM74 32h8v1h-8zM84 32h6v1h-6zM92 32h2v1h-2zM96 32h10v1h-10zM108 32h6v1h-6zM116 32h12v1h-12zM0 33h12v1h-12zM18 33h4v1h-4zM24 33h6v1h-6zM32 33h2v1h-2zM36 33h6v1h-6zM44 33h2v1h-2zM48 33h6v1h-6zM56 33h2v1h-2zM60 33h6v1h-6zM68 33h2v1h-2zM74 33h8v1h-8zM84 33h6v1h-6zM92 33h2v1h-2zM96 33h10v1h-10zM108 33h6v1h-6zM116 33h12v1h-12zM0 34h18v1h-18zM20 34h2v1h-2zM24 34h6v1h-6zM32 34h2v1h-2zM36 34h4v1h-4zM44 34h2v1h-2zM48 34h6v1h-6zM56 34h2v1h-2zM60 34h4v1h-4zM68 34h2v1h-2zM72 34h2v1h-2zM76 34h6v1h-6zM84 34h6v1h-6zM92 34h2v1h-2zM96 34h10v1h-10zM110 34h4v1h-4zM116 34h12v1h-12zM0 35h18v1h-18zM20 35h2v1h-2zM24 35h6v1h-6zM32 35h2v1h-2zM36 35h4v1h-4zM44 35h2v1h-2zM48 35h6v1h-6zM56 35h2v1h-2zM60 35h4v1h-4zM68 35h2v1h-2zM72 35h2v1h-2zM76 35h6v1h-6zM84 35h6v1h-6zM92 35h2v1h-2zM96 35h10v1h-10zM110 35h4v1h-4zM116 35h12v1h-12zM0 36h10v1h-10zM18 36h6v1h-6zM30 36h6v1h-6zM40 36h2v1h-2zM44 36h2v1h-2zM48 36h6v1h-6zM56 36h4v1h-4zM64 36h2v1h-2zM68 36h2v1h-2zM72 36h4v1h-4zM78 36h6v1h-6zM90 36h4v1h-4zM96 36h10v1h-10zM108 36h2v1h-2zM114 36h14v1h-14zM0 37h10v1h-10zM18 37h6v1h-6zM30 37h6v1h-6zM40 37h2v1h-2zM44 37h2v1h-2zM48 37h6v1h-6zM56 37h4v1h-4zM64 37h2v1h-2zM68 37h2v1h-2zM72 37h4v1h-4zM78 37h6v1h-6zM90 37h4v1h-4zM96 37h10v1h-10zM108 37h2v1h-2zM114 37h14v1h-14zM0 38h128v1h-128zM0 39h128v1h-128zM0 40h128v1h-128zM0 41h128v1h-128zM0 42h128v1h-128zM0 43h128v1h-128zM0 44h128v1h-128zM0 45h128v1h-128zM0 46h128v1h-128zM0 47h128v1h-128zM0 48h128v1h-128zM0 49h128v1h-128zM0 50h128v1h-128zM0 51h128v1h-128zM0 52h128v1h-128zM0 53h128v1h-128zM0 54h128v1h-128zM0 55h128v1h-128zM0 56h128v1h-128zM0 57h128v1h-128zM0 58h128v1h-128zM0 59h128v1h-128zM0 60h128v1h-128zM0 61h128v1h-128zM0 62h128v1h-128zM0 63h128v1h-128z" fill="#dff1ff"/></g>
    <g class="scr scr-go"><path d="M104 1h5v1h-5zM110 1h1v1h-1zM114 1h1v1h-1zM2 2h10v1h-10zM28 2h5v1h-5zM34 2h1v1h-1zM38 2h1v1h-1zM47 2h3v1h-3zM52 2h1v1h-1zM56 2h1v1h-1zM64 2h5v1h-5zM72 2h1v1h-1zM76 2h5v1h-5zM82 2h5v1h-5zM91 2h1v1h-1zM95 2h3v1h-3zM104 2h1v1h-1zM106 2h1v1h-1zM108 2h1v1h-1zM110 2h1v1h-1zM114 2h1v1h-1zM2 3h7v1h-7zM11 3h3v1h-3zM28 3h1v1h-1zM30 3h1v1h-1zM32 3h1v1h-1zM34 3h1v1h-1zM38 3h1v1h-1zM46 3h1v1h-1zM50 3h1v1h-1zM52 3h1v1h-1zM55 3h1v1h-1zM68 3h1v1h-1zM71 3h1v1h-1zM73 3h1v1h-1zM80 3h1v1h-1zM82 3h1v1h-1zM90 3h2v1h-2zM94 3h1v1h-1zM98 3h1v1h-1zM106 3h1v1h-1zM111 3h1v1h-1zM113 3h1v1h-1zM120 3h3v1h-3zM2 4h7v1h-7zM11 4h3v1h-3zM30 4h1v1h-1zM35 4h1v1h-1zM37 4h1v1h-1zM46 4h1v1h-1zM50 4h1v1h-1zM52 4h1v1h-1zM54 4h1v1h-1zM67 4h1v1h-1zM70 4h1v1h-1zM74 4h1v1h-1zM80 4h1v1h-1zM82 4h1v1h-1zM89 4h1v1h-1zM91 4h1v1h-1zM98 4h1v1h-1zM106 4h1v1h-1zM112 4h1v1h-1zM119 4h5v1h-5zM2 5h7v1h-7zM11 5h3v1h-3zM30 5h1v1h-1zM36 5h1v1h-1zM46 5h1v1h-1zM50 5h1v1h-1zM52 5h2v1h-2zM66 5h2v1h-2zM70 5h1v1h-1zM74 5h1v1h-1zM79 5h1v1h-1zM82 5h4v1h-4zM88 5h1v1h-1zM91 5h1v1h-1zM95 5h3v1h-3zM106 5h1v1h-1zM111 5h1v1h-1zM113 5h1v1h-1zM119 5h5v1h-5zM2 6h10v1h-10zM30 6h1v1h-1zM35 6h1v1h-1zM37 6h1v1h-1zM46 6h1v1h-1zM50 6h1v1h-1zM52 6h1v1h-1zM54 6h1v1h-1zM68 6h1v1h-1zM70 6h5v1h-5zM78 6h1v1h-1zM82 6h1v1h-1zM88 6h5v1h-5zM94 6h1v1h-1zM106 6h1v1h-1zM110 6h1v1h-1zM114 6h1v1h-1zM119 6h5v1h-5zM30 7h1v1h-1zM34 7h1v1h-1zM38 7h1v1h-1zM46 7h1v1h-1zM50 7h1v1h-1zM52 7h1v1h-1zM55 7h1v1h-1zM64 7h1v1h-1zM68 7h1v1h-1zM70 7h1v1h-1zM74 7h1v1h-1zM77 7h1v1h-1zM82 7h1v1h-1zM91 7h1v1h-1zM94 7h1v1h-1zM106 7h1v1h-1zM110 7h1v1h-1zM114 7h1v1h-1zM120 7h3v1h-3zM30 8h1v1h-1zM34 8h1v1h-1zM38 8h1v1h-1zM47 8h3v1h-3zM52 8h1v1h-1zM56 8h1v1h-1zM65 8h3v1h-3zM70 8h1v1h-1zM74 8h1v1h-1zM76 8h1v1h-1zM82 8h1v1h-1zM91 8h1v1h-1zM94 8h5v1h-5zM34 14h60v1h-60zM34 15h60v1h-60zM34 16h60v1h-60zM34 17h60v1h-60zM34 18h15v1h-15zM61 18h6v1h-6zM76 18h18v1h-18zM34 19h15v1h-15zM61 19h6v1h-6zM76 19h18v1h-18zM34 20h15v1h-15zM61 20h6v1h-6zM76 20h18v1h-18zM34 21h12v1h-12zM49 21h9v1h-9zM61 21h3v1h-3zM67 21h9v1h-9zM79 21h15v1h-15zM34 22h12v1h-12zM49 22h9v1h-9zM61 22h3v1h-3zM67 22h9v1h-9zM79 22h15v1h-15zM34 23h12v1h-12zM49 23h9v1h-9zM61 23h3v1h-3zM67 23h9v1h-9zM79 23h15v1h-15zM34 24h12v1h-12zM49 24h15v1h-15zM67 24h9v1h-9zM79 24h15v1h-15zM34 25h12v1h-12zM49 25h15v1h-15zM67 25h9v1h-9zM79 25h15v1h-15zM34 26h12v1h-12zM49 26h15v1h-15zM67 26h9v1h-9zM79 26h15v1h-15zM34 27h12v1h-12zM49 27h15v1h-15zM67 27h9v1h-9zM79 27h15v1h-15zM34 28h12v1h-12zM49 28h15v1h-15zM67 28h9v1h-9zM79 28h15v1h-15zM34 29h12v1h-12zM49 29h15v1h-15zM67 29h9v1h-9zM79 29h15v1h-15zM34 30h12v1h-12zM49 30h6v1h-6zM61 30h3v1h-3zM67 30h9v1h-9zM79 30h15v1h-15zM34 31h12v1h-12zM49 31h6v1h-6zM61 31h3v1h-3zM67 31h9v1h-9zM79 31h15v1h-15zM34 32h12v1h-12zM49 32h6v1h-6zM61 32h3v1h-3zM67 32h9v1h-9zM79 32h15v1h-15zM34 33h12v1h-12zM49 33h9v1h-9zM61 33h3v1h-3zM67 33h9v1h-9zM79 33h15v1h-15zM34 34h12v1h-12zM49 34h9v1h-9zM61 34h3v1h-3zM67 34h9v1h-9zM79 34h15v1h-15zM34 35h12v1h-12zM49 35h9v1h-9zM61 35h3v1h-3zM67 35h9v1h-9zM79 35h15v1h-15zM34 36h15v1h-15zM61 36h6v1h-6zM76 36h18v1h-18zM34 37h15v1h-15zM61 37h6v1h-6zM76 37h18v1h-18zM34 38h15v1h-15zM61 38h6v1h-6zM76 38h18v1h-18zM34 39h60v1h-60zM34 40h60v1h-60zM34 41h60v1h-60zM34 42h60v1h-60zM34 43h60v1h-60zM34 44h60v1h-60zM34 45h60v1h-60zM56 54h1v1h-1zM58 54h1v1h-1zM76 54h1v1h-1zM56 55h1v1h-1zM58 55h1v1h-1zM76 55h1v1h-1zM29 56h4v1h-4zM35 56h3v1h-3zM40 56h1v1h-1zM44 56h1v1h-1zM46 56h1v1h-1zM48 56h2v1h-2zM53 56h2v1h-2zM56 56h1v1h-1zM58 56h1v1h-1zM61 56h1v1h-1zM65 56h3v1h-3zM70 56h1v1h-1zM72 56h2v1h-2zM76 56h1v1h-1zM78 56h2v1h-2zM88 56h1v1h-1zM90 56h2v1h-2zM94 56h1v1h-1zM98 56h1v1h-1zM28 57h1v1h-1zM34 57h1v1h-1zM38 57h1v1h-1zM40 57h1v1h-1zM44 57h1v1h-1zM46 57h2v1h-2zM50 57h1v1h-1zM52 57h1v1h-1zM55 57h2v1h-2zM58 57h1v1h-1zM60 57h1v1h-1zM64 57h1v1h-1zM68 57h1v1h-1zM70 57h2v1h-2zM74 57h1v1h-1zM76 57h2v1h-2zM80 57h1v1h-1zM88 57h2v1h-2zM92 57h1v1h-1zM94 57h1v1h-1zM98 57h1v1h-1zM29 58h3v1h-3zM34 58h1v1h-1zM38 58h1v1h-1zM40 58h1v1h-1zM44 58h1v1h-1zM46 58h1v1h-1zM50 58h1v1h-1zM52 58h1v1h-1zM56 58h1v1h-1zM58 58h2v1h-2zM64 58h1v1h-1zM68 58h1v1h-1zM70 58h1v1h-1zM76 58h1v1h-1zM80 58h1v1h-1zM88 58h1v1h-1zM94 58h1v1h-1zM98 58h1v1h-1zM32 59h1v1h-1zM34 59h1v1h-1zM38 59h1v1h-1zM40 59h1v1h-1zM43 59h2v1h-2zM46 59h1v1h-1zM50 59h1v1h-1zM52 59h1v1h-1zM55 59h2v1h-2zM58 59h1v1h-1zM60 59h1v1h-1zM64 59h1v1h-1zM68 59h1v1h-1zM70 59h1v1h-1zM76 59h2v1h-2zM80 59h1v1h-1zM84 59h2v1h-2zM88 59h1v1h-1zM94 59h1v1h-1zM97 59h2v1h-2zM28 60h4v1h-4zM35 60h3v1h-3zM41 60h2v1h-2zM44 60h1v1h-1zM46 60h1v1h-1zM50 60h1v1h-1zM53 60h2v1h-2zM56 60h1v1h-1zM58 60h1v1h-1zM61 60h1v1h-1zM65 60h3v1h-3zM70 60h1v1h-1zM76 60h1v1h-1zM78 60h2v1h-2zM84 60h2v1h-2zM88 60h1v1h-1zM95 60h2v1h-2zM98 60h1v1h-1z" fill="#dff1ff"/></g>
    <g class="scr scr-gosent"><path d="M104 1h5v1h-5zM110 1h1v1h-1zM114 1h1v1h-1zM2 2h10v1h-10zM104 2h1v1h-1zM106 2h1v1h-1zM108 2h1v1h-1zM110 2h1v1h-1zM114 2h1v1h-1zM2 3h7v1h-7zM11 3h3v1h-3zM106 3h1v1h-1zM111 3h1v1h-1zM113 3h1v1h-1zM120 3h3v1h-3zM2 4h7v1h-7zM11 4h3v1h-3zM106 4h1v1h-1zM112 4h1v1h-1zM119 4h5v1h-5zM2 5h7v1h-7zM11 5h3v1h-3zM106 5h1v1h-1zM111 5h1v1h-1zM113 5h1v1h-1zM119 5h5v1h-5zM2 6h10v1h-10zM106 6h1v1h-1zM110 6h1v1h-1zM114 6h1v1h-1zM119 6h5v1h-5zM106 7h1v1h-1zM110 7h1v1h-1zM114 7h1v1h-1zM120 7h3v1h-3zM34 12h60v1h-60zM34 13h1v1h-1zM93 13h1v1h-1zM34 14h1v1h-1zM49 14h12v1h-12zM67 14h9v1h-9zM93 14h1v1h-1zM34 15h1v1h-1zM49 15h12v1h-12zM67 15h9v1h-9zM93 15h1v1h-1zM34 16h1v1h-1zM49 16h12v1h-12zM67 16h9v1h-9zM93 16h1v1h-1zM34 17h1v1h-1zM46 17h3v1h-3zM58 17h3v1h-3zM64 17h3v1h-3zM76 17h3v1h-3zM93 17h1v1h-1zM34 18h1v1h-1zM46 18h3v1h-3zM58 18h3v1h-3zM64 18h3v1h-3zM76 18h3v1h-3zM93 18h1v1h-1zM34 19h1v1h-1zM46 19h3v1h-3zM58 19h3v1h-3zM64 19h3v1h-3zM76 19h3v1h-3zM93 19h1v1h-1zM34 20h1v1h-1zM46 20h3v1h-3zM64 20h3v1h-3zM76 20h3v1h-3zM93 20h1v1h-1zM34 21h1v1h-1zM46 21h3v1h-3zM64 21h3v1h-3zM76 21h3v1h-3zM93 21h1v1h-1zM34 22h1v1h-1zM46 22h3v1h-3zM64 22h3v1h-3zM76 22h3v1h-3zM93 22h1v1h-1zM34 23h1v1h-1zM46 23h3v1h-3zM64 23h3v1h-3zM76 23h3v1h-3zM93 23h1v1h-1zM34 24h1v1h-1zM46 24h3v1h-3zM64 24h3v1h-3zM76 24h3v1h-3zM93 24h1v1h-1zM34 25h1v1h-1zM46 25h3v1h-3zM64 25h3v1h-3zM76 25h3v1h-3zM93 25h1v1h-1zM34 26h1v1h-1zM46 26h3v1h-3zM55 26h6v1h-6zM64 26h3v1h-3zM76 26h3v1h-3zM93 26h1v1h-1zM34 27h1v1h-1zM46 27h3v1h-3zM55 27h6v1h-6zM64 27h3v1h-3zM76 27h3v1h-3zM93 27h1v1h-1zM34 28h1v1h-1zM46 28h3v1h-3zM55 28h6v1h-6zM64 28h3v1h-3zM76 28h3v1h-3zM93 28h1v1h-1zM34 29h1v1h-1zM46 29h3v1h-3zM58 29h3v1h-3zM64 29h3v1h-3zM76 29h3v1h-3zM93 29h1v1h-1zM34 30h1v1h-1zM46 30h3v1h-3zM58 30h3v1h-3zM64 30h3v1h-3zM76 30h3v1h-3zM93 30h1v1h-1zM34 31h1v1h-1zM46 31h3v1h-3zM58 31h3v1h-3zM64 31h3v1h-3zM76 31h3v1h-3zM93 31h1v1h-1zM34 32h1v1h-1zM49 32h12v1h-12zM67 32h9v1h-9zM93 32h1v1h-1zM34 33h1v1h-1zM49 33h12v1h-12zM67 33h9v1h-9zM93 33h1v1h-1zM34 34h1v1h-1zM49 34h12v1h-12zM67 34h9v1h-9zM93 34h1v1h-1zM34 35h1v1h-1zM93 35h1v1h-1zM34 36h1v1h-1zM93 36h1v1h-1zM34 37h1v1h-1zM93 37h1v1h-1zM34 38h1v1h-1zM93 38h1v1h-1zM34 39h60v1h-60zM38 50h3v1h-3zM43 50h5v1h-5zM49 50h1v1h-1zM53 50h1v1h-1zM55 50h5v1h-5zM67 50h1v1h-1zM74 50h3v1h-3zM79 50h4v1h-4zM87 50h1v1h-1zM37 51h1v1h-1zM41 51h1v1h-1zM43 51h1v1h-1zM49 51h1v1h-1zM53 51h1v1h-1zM55 51h1v1h-1zM57 51h1v1h-1zM59 51h1v1h-1zM67 51h1v1h-1zM73 51h1v1h-1zM77 51h1v1h-1zM79 51h1v1h-1zM83 51h1v1h-1zM86 51h1v1h-1zM88 51h1v1h-1zM37 52h1v1h-1zM43 52h1v1h-1zM49 52h2v1h-2zM53 52h1v1h-1zM57 52h1v1h-1zM67 52h1v1h-1zM73 52h1v1h-1zM77 52h1v1h-1zM79 52h1v1h-1zM83 52h1v1h-1zM85 52h1v1h-1zM89 52h1v1h-1zM38 53h3v1h-3zM43 53h4v1h-4zM49 53h1v1h-1zM51 53h1v1h-1zM53 53h1v1h-1zM57 53h1v1h-1zM67 53h1v1h-1zM73 53h1v1h-1zM77 53h1v1h-1zM79 53h4v1h-4zM85 53h1v1h-1zM89 53h1v1h-1zM41 54h1v1h-1zM43 54h1v1h-1zM49 54h1v1h-1zM52 54h2v1h-2zM57 54h1v1h-1zM67 54h1v1h-1zM73 54h1v1h-1zM77 54h1v1h-1zM79 54h1v1h-1zM81 54h1v1h-1zM85 54h5v1h-5zM37 55h1v1h-1zM41 55h1v1h-1zM43 55h1v1h-1zM49 55h1v1h-1zM53 55h1v1h-1zM57 55h1v1h-1zM67 55h1v1h-1zM73 55h1v1h-1zM77 55h1v1h-1zM79 55h1v1h-1zM82 55h1v1h-1zM85 55h1v1h-1zM89 55h1v1h-1zM38 56h3v1h-3zM43 56h5v1h-5zM49 56h1v1h-1zM53 56h1v1h-1zM57 56h1v1h-1zM67 56h5v1h-5zM74 56h3v1h-3zM79 56h1v1h-1zM83 56h1v1h-1zM85 56h1v1h-1zM89 56h1v1h-1z" fill="#dff1ff"/></g>
    <g class="scr scr-panic"><path d="M104 1h5v1h-5zM110 1h1v1h-1zM114 1h1v1h-1zM2 2h10v1h-10zM104 2h1v1h-1zM106 2h1v1h-1zM108 2h1v1h-1zM110 2h1v1h-1zM114 2h1v1h-1zM2 3h7v1h-7zM11 3h3v1h-3zM106 3h1v1h-1zM111 3h1v1h-1zM113 3h1v1h-1zM120 3h3v1h-3zM2 4h7v1h-7zM11 4h3v1h-3zM106 4h1v1h-1zM112 4h1v1h-1zM119 4h5v1h-5zM2 5h7v1h-7zM11 5h3v1h-3zM106 5h1v1h-1zM111 5h1v1h-1zM113 5h1v1h-1zM119 5h5v1h-5zM2 6h10v1h-10zM106 6h1v1h-1zM110 6h1v1h-1zM114 6h1v1h-1zM119 6h5v1h-5zM106 7h1v1h-1zM110 7h1v1h-1zM114 7h1v1h-1zM120 7h3v1h-3zM19 12h12v1h-12zM43 12h3v1h-3zM55 12h3v1h-3zM67 12h3v1h-3zM76 12h9v1h-9zM94 12h9v1h-9zM19 13h12v1h-12zM43 13h3v1h-3zM55 13h3v1h-3zM67 13h3v1h-3zM76 13h9v1h-9zM94 13h9v1h-9zM19 14h12v1h-12zM43 14h3v1h-3zM55 14h3v1h-3zM67 14h3v1h-3zM76 14h9v1h-9zM94 14h9v1h-9zM19 15h3v1h-3zM31 15h3v1h-3zM40 15h3v1h-3zM46 15h3v1h-3zM55 15h3v1h-3zM67 15h3v1h-3zM79 15h3v1h-3zM91 15h3v1h-3zM103 15h3v1h-3zM19 16h3v1h-3zM31 16h3v1h-3zM40 16h3v1h-3zM46 16h3v1h-3zM55 16h3v1h-3zM67 16h3v1h-3zM79 16h3v1h-3zM91 16h3v1h-3zM103 16h3v1h-3zM19 17h3v1h-3zM31 17h3v1h-3zM40 17h3v1h-3zM46 17h3v1h-3zM55 17h3v1h-3zM67 17h3v1h-3zM79 17h3v1h-3zM91 17h3v1h-3zM103 17h3v1h-3zM19 18h3v1h-3zM31 18h3v1h-3zM37 18h3v1h-3zM49 18h3v1h-3zM55 18h6v1h-6zM67 18h3v1h-3zM79 18h3v1h-3zM91 18h3v1h-3zM19 19h3v1h-3zM31 19h3v1h-3zM37 19h3v1h-3zM49 19h3v1h-3zM55 19h6v1h-6zM67 19h3v1h-3zM79 19h3v1h-3zM91 19h3v1h-3zM19 20h3v1h-3zM31 20h3v1h-3zM37 20h3v1h-3zM49 20h3v1h-3zM55 20h6v1h-6zM67 20h3v1h-3zM79 20h3v1h-3zM91 20h3v1h-3zM19 21h12v1h-12zM37 21h3v1h-3zM49 21h3v1h-3zM55 21h3v1h-3zM61 21h3v1h-3zM67 21h3v1h-3zM79 21h3v1h-3zM91 21h3v1h-3zM19 22h12v1h-12zM37 22h3v1h-3zM49 22h3v1h-3zM55 22h3v1h-3zM61 22h3v1h-3zM67 22h3v1h-3zM79 22h3v1h-3zM91 22h3v1h-3zM19 23h12v1h-12zM37 23h3v1h-3zM49 23h3v1h-3zM55 23h3v1h-3zM61 23h3v1h-3zM67 23h3v1h-3zM79 23h3v1h-3zM91 23h3v1h-3zM19 24h3v1h-3zM37 24h15v1h-15zM55 24h3v1h-3zM64 24h6v1h-6zM79 24h3v1h-3zM91 24h3v1h-3zM19 25h3v1h-3zM37 25h15v1h-15zM55 25h3v1h-3zM64 25h6v1h-6zM79 25h3v1h-3zM91 25h3v1h-3zM19 26h3v1h-3zM37 26h15v1h-15zM55 26h3v1h-3zM64 26h6v1h-6zM79 26h3v1h-3zM91 26h3v1h-3zM19 27h3v1h-3zM37 27h3v1h-3zM49 27h3v1h-3zM55 27h3v1h-3zM67 27h3v1h-3zM79 27h3v1h-3zM91 27h3v1h-3zM103 27h3v1h-3zM19 28h3v1h-3zM37 28h3v1h-3zM49 28h3v1h-3zM55 28h3v1h-3zM67 28h3v1h-3zM79 28h3v1h-3zM91 28h3v1h-3zM103 28h3v1h-3zM19 29h3v1h-3zM37 29h3v1h-3zM49 29h3v1h-3zM55 29h3v1h-3zM67 29h3v1h-3zM79 29h3v1h-3zM91 29h3v1h-3zM103 29h3v1h-3zM19 30h3v1h-3zM37 30h3v1h-3zM49 30h3v1h-3zM55 30h3v1h-3zM67 30h3v1h-3zM76 30h9v1h-9zM94 30h9v1h-9zM19 31h3v1h-3zM37 31h3v1h-3zM49 31h3v1h-3zM55 31h3v1h-3zM67 31h3v1h-3zM76 31h9v1h-9zM94 31h9v1h-9zM19 32h3v1h-3zM37 32h3v1h-3zM49 32h3v1h-3zM55 32h3v1h-3zM67 32h3v1h-3zM76 32h9v1h-9zM94 32h9v1h-9zM38 48h3v1h-3zM43 48h5v1h-5zM49 48h1v1h-1zM53 48h1v1h-1zM55 48h5v1h-5zM67 48h1v1h-1zM74 48h3v1h-3zM79 48h4v1h-4zM87 48h1v1h-1zM37 49h1v1h-1zM41 49h1v1h-1zM43 49h1v1h-1zM49 49h1v1h-1zM53 49h1v1h-1zM55 49h1v1h-1zM57 49h1v1h-1zM59 49h1v1h-1zM67 49h1v1h-1zM73 49h1v1h-1zM77 49h1v1h-1zM79 49h1v1h-1zM83 49h1v1h-1zM86 49h1v1h-1zM88 49h1v1h-1zM37 50h1v1h-1zM43 50h1v1h-1zM49 50h2v1h-2zM53 50h1v1h-1zM57 50h1v1h-1zM67 50h1v1h-1zM73 50h1v1h-1zM77 50h1v1h-1zM79 50h1v1h-1zM83 50h1v1h-1zM85 50h1v1h-1zM89 50h1v1h-1zM38 51h3v1h-3zM43 51h4v1h-4zM49 51h1v1h-1zM51 51h1v1h-1zM53 51h1v1h-1zM57 51h1v1h-1zM67 51h1v1h-1zM73 51h1v1h-1zM77 51h1v1h-1zM79 51h4v1h-4zM85 51h1v1h-1zM89 51h1v1h-1zM41 52h1v1h-1zM43 52h1v1h-1zM49 52h1v1h-1zM52 52h2v1h-2zM57 52h1v1h-1zM67 52h1v1h-1zM73 52h1v1h-1zM77 52h1v1h-1zM79 52h1v1h-1zM81 52h1v1h-1zM85 52h5v1h-5zM37 53h1v1h-1zM41 53h1v1h-1zM43 53h1v1h-1zM49 53h1v1h-1zM53 53h1v1h-1zM57 53h1v1h-1zM67 53h1v1h-1zM73 53h1v1h-1zM77 53h1v1h-1zM79 53h1v1h-1zM82 53h1v1h-1zM85 53h1v1h-1zM89 53h1v1h-1zM38 54h3v1h-3zM43 54h5v1h-5zM49 54h1v1h-1zM53 54h1v1h-1zM57 54h1v1h-1zM67 54h5v1h-5zM74 54h3v1h-3zM79 54h1v1h-1zM83 54h1v1h-1zM85 54h1v1h-1zM89 54h1v1h-1z" fill="#dff1ff"/></g>
  </g>
  <!-- PRG button -->
  <g class="btn">
    <rect x="40" y="200" width="34" height="18" rx="4" fill="#46586f"/>
    <rect x="44" y="203" width="26" height="12" rx="3" fill="#67809d"/>
  </g>
  <text x="57" y="196" text-anchor="middle" fill="#5d6c80" font-size="11">PRG</text>
  <!-- LED -->
  <circle cx="330" cy="209" r="5" fill="#243247"/>
  <circle class="led" cx="330" cy="209" r="5" fill="#ffd76a"/>
  <text x="330" y="196" text-anchor="middle" fill="#5d6c80" font-size="11">LED</text>
</g>

<!-- radio waves from antenna -->
<g stroke="#6fd18c" stroke-width="3" fill="none">
  <path class="wave" d="M482 92 a38 38 0 0 1 0 52"/>
  <path class="wave wave2" d="M496 78 a58 58 0 0 1 0 80"/>
</g>

<!-- ===== cue panel (QLab-style) ===== -->
<g transform="translate(560,80)">
  <rect x="0" y="0" width="260" height="230" rx="10" fill="#171d27" stroke="#2b3950" stroke-width="2"/>
  <rect x="0" y="0" width="260" height="30" rx="10" fill="#222c3b"/>
  <circle cx="18" cy="15" r="5" fill="#ff5f57"/><circle cx="34" cy="15" r="5" fill="#febc2e"/><circle cx="50" cy="15" r="5" fill="#28c840"/>
  <text x="130" y="20" text-anchor="middle" fill="#8fa1b8" font-size="13">cue list</text>

  <!-- rows -->
  <rect class="cue1sel" x="10" y="42" width="240" height="30" rx="5" fill="#2b4a75"/>
  <rect class="cue2sel" x="10" y="78" width="240" height="30" rx="5" fill="#2b4a75"/>
  <text x="24" y="62" fill="#dfe8f4" font-size="14">1&#160;&#160;Intro music</text>
  <text x="24" y="98" fill="#dfe8f4" font-size="14">2&#160;&#160;Thunder SFX</text>
  <text x="24" y="134" fill="#9fb0c5" font-size="14">3&#160;&#160;Blackout</text>

  <!-- playing bar on cue 1 -->
  <rect class="bar" x="188" y="52" width="52" height="10" rx="3" fill="#3fae5f"/>

  <!-- GO flash -->
  <g class="goflash">
    <rect x="10" y="168" width="240" height="42" rx="6" fill="#1f5c33"/>
    <text x="130" y="196" text-anchor="middle" fill="#8ef0ae" font-size="22" font-weight="bold">GO &#9654;</text>
  </g>
  <!-- PANIC flash -->
  <g class="stop">
    <rect x="10" y="168" width="240" height="42" rx="6" fill="#5c1f1f"/>
    <text x="130" y="196" text-anchor="middle" fill="#ff9d9d" font-size="20" font-weight="bold">&#9632; ALL STOPPED</text>
  </g>
</g>
</svg>
